<svg viewBox="0 0 680 600" xmlns="http://www.w3.org/2000/svg" role="img" aria-label="Illustration de Gamael codant sur son laptop">
<defs>
<linearGradient id="skinShade" x1="0%" y1="0%" x2="100%" y2="100%">
  <stop offset="0%" stop-color="#FFD9B3"/>
  <stop offset="100%" stop-color="#F0B888"/>
</linearGradient>
<linearGradient id="hairShade" x1="0%" y1="0%" x2="0%" y2="100%">
  <stop offset="0%" stop-color="#2D2420"/>
  <stop offset="100%" stop-color="#1A1410"/>
</linearGradient>
<linearGradient id="shirtShade" x1="0%" y1="0%" x2="0%" y2="100%">
  <stop offset="0%" stop-color="#3B82F6"/>
  <stop offset="100%" stop-color="#1D4ED8"/>
</linearGradient>
<linearGradient id="laptopLid" x1="0%" y1="0%" x2="0%" y2="100%">
  <stop offset="0%" stop-color="#64748B"/>
  <stop offset="100%" stop-color="#475569"/>
</linearGradient>
<radialGradient id="bgGlow" cx="50%" cy="38%" r="60%">
  <stop offset="0%" stop-color="#EFF6FF" stop-opacity="0.9"/>
  <stop offset="100%" stop-color="#DBEAFE" stop-opacity="0"/>
</radialGradient>
</defs>

<circle cx="340" cy="300" r="240" fill="url(#bgGlow)"/>
<ellipse cx="340" cy="300" rx="240" ry="240" fill="none" stroke="#BFDBFE" stroke-width="1" opacity="0.4"/>
<ellipse cx="340" cy="300" rx="195" ry="195" fill="none" stroke="#BFDBFE" stroke-width="1" opacity="0.3"/>

<g>
  <rect x="56" y="148" width="100" height="40" rx="10" fill="#FFFFFF" stroke="#2563EB" stroke-width="1.5"/>
  <text x="106" y="174" text-anchor="middle" font-family="monospace" font-size="15" fill="#2563EB" font-weight="700">&lt;/&gt;</text>
  <animateTransform attributeName="transform" type="translate" values="0 0; 0 -12; 0 0" dur="3.4s" repeatCount="indefinite"/>
</g>

<g>
  <circle cx="592" cy="172" r="26" fill="#FFFFFF" stroke="#2563EB" stroke-width="1.5"/>
  <path d="M592 156 L597 169 L611 169 L600 178 L604 192 L592 183 L580 192 L584 178 L573 169 L587 169 Z" fill="#FBBF24"/>
  <animateTransform attributeName="transform" type="translate" values="0 0; 0 14; 0 0" dur="4s" repeatCount="indefinite"/>
</g>

<g>
  <rect x="548" y="328" width="78" height="56" rx="12" fill="#2563EB"/>
  <polygon points="566,384 566,400 588,384" fill="#2563EB"/>
  <path d="M567 354 L578 365 L598 343" fill="none" stroke="#FFFFFF" stroke-width="4" stroke-linecap="round" stroke-linejoin="round"/>
  <animateTransform attributeName="transform" type="translate" values="0 0; -10 -10; 0 0" dur="3.7s" repeatCount="indefinite"/>
</g>

<g>
  <rect x="74" y="392" width="72" height="72" rx="36" fill="#FFFFFF" stroke="#2563EB" stroke-width="1.5"/>
  <text x="110" y="436" text-anchor="middle" font-family="monospace" font-size="17" fill="#2563EB" font-weight="700">{ }</text>
  <animateTransform attributeName="transform" type="translate" values="0 0; 8 12; 0 0" dur="3.9s" repeatCount="indefinite"/>
</g>

<ellipse cx="340" cy="535" rx="165" ry="20" fill="#1E293B" opacity="0.08"/>
<ellipse cx="345" cy="270" rx="68" ry="74" fill="#000000" opacity="0.06"/>

<path d="M276 218 Q276 158 340 152 Q406 154 408 218 L408 232 L398 232 Q396 196 340 192 Q286 196 282 232 L272 232 Z" fill="url(#hairShade)"/>
<path d="M268 222 Q264 218 268 214 Q272 210 276 216 L276 232 L268 232 Z" fill="url(#hairShade)"/>
<path d="M412 222 Q416 218 412 214 Q408 210 404 216 L404 232 L412 232 Z" fill="url(#hairShade)"/>

<ellipse cx="340" cy="262" rx="62" ry="66" fill="url(#skinShade)"/>
<path d="M280 248 Q278 220 340 216 Q404 220 402 248 Q402 232 340 228 Q280 232 280 248 Z" fill="url(#hairShade)"/>

<path d="M298 250 Q300 244 308 246" fill="none" stroke="#7C4A2D" stroke-width="3" stroke-linecap="round"/>
<path d="M372 250 Q370 244 362 246" fill="none" stroke="#7C4A2D" stroke-width="3" stroke-linecap="round"/>

<ellipse cx="312" cy="262" rx="6" ry="8" fill="#2A1A12"/>
<ellipse cx="368" cy="262" rx="6" ry="8" fill="#2A1A12"/>
<circle cx="314" cy="259" r="1.6" fill="#FFFFFF"/>
<circle cx="370" cy="259" r="1.6" fill="#FFFFFF"/>

<path d="M328 282 Q340 290 352 282" fill="none" stroke="#7C4A2D" stroke-width="3.2" stroke-linecap="round"/>
<ellipse cx="318" cy="278" rx="9" ry="6" fill="#F0918A" opacity="0.35"/>
<ellipse cx="362" cy="278" rx="9" ry="6" fill="#F0918A" opacity="0.35"/>

<path d="M334 260 L330 274 L340 276" fill="none" stroke="#D89968" stroke-width="2" stroke-linecap="round"/>

<path d="M270 330 Q272 280 340 274 Q410 280 412 330 L420 350 L262 350 Z" fill="url(#shirtShade)"/>
<path d="M310 280 L340 304 L370 280 L362 274 L340 290 L318 274 Z" fill="#1E40AF"/>
<rect x="333" y="288" width="14" height="20" fill="#FFFFFF"/>

<path d="M262 350 Q255 360 260 380 L290 372 Z" fill="#1D4ED8"/>
<path d="M420 350 Q427 360 422 380 L392 372 Z" fill="#1D4ED8"/>

<rect x="222" y="438" width="236" height="16" rx="5" fill="#94A3B8"/>
<rect x="222" y="438" width="236" height="6" rx="3" fill="#CBD5E1"/>

<g>
  <path d="M250 366 Q250 354 264 354 L416 354 Q430 354 430 366 L432 432 L248 432 Z" fill="url(#laptopLid)"/>
  <rect x="262" y="364" width="156" height="60" rx="4" fill="#0B1220"/>
  <rect x="270" y="372" width="140" height="44" rx="2" fill="#101A2C"/>

  <rect x="278" y="380" width="64" height="5" rx="2.5" fill="#2563EB">
    <animate attributeName="width" values="64;104;64" dur="2.6s" repeatCount="indefinite"/>
  </rect>
  <rect x="278" y="391" width="96" height="5" rx="2.5" fill="#60A5FA">
    <animate attributeName="width" values="96;54;96" dur="3s" repeatCount="indefinite"/>
  </rect>
  <rect x="278" y="402" width="48" height="5" rx="2.5" fill="#93C5FD">
    <animate attributeName="width" values="48;80;48" dur="2.3s" repeatCount="indefinite"/>
  </rect>
  <circle cx="395" cy="404" r="3" fill="#22C55E">
    <animate attributeName="opacity" values="1;0.3;1" dur="1.3s" repeatCount="indefinite"/>
  </circle>
</g>

<path d="M286 432 Q286 396 340 392 Q396 396 396 432" fill="none" stroke="#64748B" stroke-width="3" opacity="0.5"/>

<ellipse cx="276" cy="452" rx="16" ry="24" fill="url(#skinShade)" transform="rotate(-18 276 452)"/>
<ellipse cx="404" cy="452" rx="16" ry="24" fill="url(#skinShade)" transform="rotate(18 404 452)"/>
<ellipse cx="272" cy="468" rx="11" ry="9" fill="url(#skinShade)"/>
<ellipse cx="408" cy="468" rx="11" ry="9" fill="url(#skinShade)"/>

<circle cx="446" cy="280" r="4.5" fill="#2563EB" opacity="0.6">
  <animate attributeName="opacity" values="0.6;1;0.6" dur="1.6s" repeatCount="indefinite"/>
</circle>
<circle cx="468" cy="258" r="3.5" fill="#60A5FA" opacity="0.5">
  <animate attributeName="opacity" values="0.5;1;0.5" dur="2s" repeatCount="indefinite"/>
</circle>
<circle cx="232" cy="300" r="3.5" fill="#93C5FD" opacity="0.5">
  <animate attributeName="opacity" values="0.5;1;0.5" dur="2.4s" repeatCount="indefinite"/>
</circle>
</svg>
